HIERARCHY
ROOT SpineBase
{
  OFFSET 0.000000 0.000000 0.000000
  CHANNELS 6 Xposition Yposition Zposition Zrotation Xrotation Yrotation
  JOINT SpineMid
  {
    OFFSET 0.000000 33.139712 0.000000
    CHANNELS 3 Zrotation Xrotation Yrotation
    JOINT SpineShoulder
    {
      OFFSET 0.055622 24.454969 -0.832460
      CHANNELS 3 Zrotation Xrotation Yrotation
      JOINT Neck
      {
        OFFSET 0.059978 8.036331 -0.616549
        CHANNELS 3 Zrotation Xrotation Yrotation
        JOINT Head
        {
          OFFSET 3.830000 13.163722 4.046916
          CHANNELS 3 Zrotation Xrotation Yrotation
          End Site
          {
            OFFSET 0 0 0
          }
        }
      }
      JOINT ShoulderLeft
      {
        OFFSET -8.167321 -3.891072 -14.489675
        CHANNELS 3 Zrotation Xrotation Yrotation
        JOINT ElbowLeft
        {
          OFFSET -4.364900 -22.040099 -5.733633
          CHANNELS 3 Zrotation Xrotation Yrotation
          JOINT WristLeft
          {
            OFFSET 28.477598 -3.355684 4.929005
            CHANNELS 3 Zrotation Xrotation Yrotation
            JOINT HandLeft
            {
              OFFSET 7.084945 2.596665 4.459726
              CHANNELS 3 Zrotation Xrotation Yrotation
              JOINT HandTipLeft
              {
                OFFSET 5.350819 1.595617 1.969940
                CHANNELS 3 Zrotation Xrotation Yrotation
                End Site
                {
                  OFFSET 0 0 0
                }
              }
              JOINT ThumbLeft
              {
                OFFSET 0.435761 4.465127 1.985663
                CHANNELS 3 Zrotation Xrotation Yrotation
                End Site
                {
                  OFFSET 0 0 0
                }
              }
            }
          }
        }
      }
      JOINT ShoulderRight
      {
        OFFSET 10.391081 -6.334174 11.042799
        CHANNELS 3 Zrotation Xrotation Yrotation
        JOINT ElbowRight
        {
          OFFSET 0.351858 -21.282143 -5.875233
          CHANNELS 3 Zrotation Xrotation Yrotation
          JOINT WristRight
          {
            OFFSET 6.720886 3.265179 23.693213
            CHANNELS 3 Zrotation Xrotation Yrotation
            JOINT HandRight
            {
              OFFSET 2.186826 1.084900 8.317329
              CHANNELS 3 Zrotation Xrotation Yrotation
              JOINT HandTipRight
              {
                OFFSET 2.248027 -1.647302 -0.274684
                CHANNELS 3 Zrotation Xrotation Yrotation
                End Site
                {
                  OFFSET 0 0 0
                }
              }
              JOINT ThumbRight
              {
                OFFSET 0.375750 -0.170097 -2.641001
                CHANNELS 3 Zrotation Xrotation Yrotation
                End Site
                {
                  OFFSET 0 0 0
                }
              }
            }
          }
        }
      }
    }
  }
  JOINT HipLeft
  {
    OFFSET -4.146385 1.394531 -9.090012
    CHANNELS 3 Zrotation Xrotation Yrotation
    JOINT KneeLeft
    {
      OFFSET -7.537478 -33.325579 -1.334809
      CHANNELS 3 Zrotation Xrotation Yrotation
      JOINT AnkleLeft
      {
        OFFSET -7.853266 -35.861213 7.068834
        CHANNELS 3 Zrotation Xrotation Yrotation
        JOINT FootLeft
        {
          OFFSET 2.014491 -7.618239 -5.486696
          CHANNELS 3 Zrotation Xrotation Yrotation
          End Site
          {
            OFFSET 0 0 0
          }
        }
      }
    }
  }
  JOINT HipRight
  {
    OFFSET 5.284032 -0.701419 1.297292
    CHANNELS 3 Zrotation Xrotation Yrotation
    JOINT KneeRight
    {
      OFFSET -4.011929 -35.462254 6.507507
      CHANNELS 3 Zrotation Xrotation Yrotation
      JOINT AnkleRight
      {
        OFFSET -7.236084 -35.944895 6.983729
        CHANNELS 3 Zrotation Xrotation Yrotation
        JOINT FootRight
        {
          OFFSET 1.548743 -6.855891 -4.440168
          CHANNELS 3 Zrotation Xrotation Yrotation
          End Site
          {
            OFFSET 0 0 0
          }
        }
      }
    }
  }
}
MOTION
Frames: 14
Frame Time: 0.033333
-57.389157 79.052914 365.375803 -1.060914 -0.979733 -50.857403 -0.191758 -0.673001 50.795021 -0.370598 -0.006715 -0.090534 5.906685 5.636012 -2.549152 0.000000 0.000000 0.000000 2.071470 1.267408 0.126692 -3.239256 0.447931 -1.253114 4.826583 -6.786306 18.669347 3.347328 9.851587 -33.024021 0.000000 0.000000 0.000000 0.000000 0.000000 0.000000 23.371805 -18.080228 -3.100606 21.378573 -42.216286 40.025058 -26.835799 -5.769968 -44.789242 72.236363 -21.167560 -94.021510 0.000000 0.000000 0.000000 0.000000 0.000000 0.000000 -0.090053 1.441249 50.849465 0.604951 -2.059559 0.579804 1.427169 -5.621406 -4.188205 0.000000 0.000000 0.000000 2.008500 0.816148 51.190210 -0.762989 0.704823 -0.089314 1.523410 2.277613 -1.130247 0.000000 0.000000 0.000000
-57.509740 79.156849 365.326552 -1.460345 -1.240236 -50.088998 -0.124687 -0.861002 50.003427 -0.432299 -0.077250 -0.112888 7.256577 5.570473 -2.677285 0.000000 0.000000 0.000000 -0.257772 1.644823 1.006219 -2.226360 1.036244 -0.820005 6.584585 -5.846218 12.652953 -1.439072 9.471546 -22.103667 0.000000 0.000000 0.000000 0.000000 0.000000 0.000000 28.931878 -21.580958 -3.137918 18.525697 -44.279443 35.525740 -26.155861 -0.475425 -41.253548 105.816070 -26.627496 -96.002174 0.000000 0.000000 0.000000 0.000000 0.000000 0.000000 -0.014086 1.915793 50.073427 0.779349 -1.957288 0.594486 1.247509 -6.070416 -4.293375 0.000000 0.000000 0.000000 1.788262 1.128886 50.339825 -0.185270 0.368216 0.063953 4.995859 4.345350 -3.372761 0.000000 0.000000 0.000000
-57.657463 79.254920 365.300389 -1.844442 -1.681729 -48.161187 0.034045 -1.155410 48.048329 -0.473342 -0.182164 -0.131026 8.925225 5.413821 -2.850616 0.000000 0.000000 0.000000 -1.737612 2.224405 1.702132 -1.711416 1.689784 0.153399 7.193978 -5.476647 9.469699 -4.855882 9.203383 -15.643432 0.000000 0.000000 0.000000 0.000000 0.000000 0.000000 33.367809 -21.800299 -3.823045 20.192319 -47.688000 37.790765 -28.231183 9.124555 -40.324620 105.868853 -20.776236 -93.496831 0.000000 0.000000 0.000000 0.000000 0.000000 0.000000 -0.022022 2.495740 48.134593 0.996878 -1.412124 0.517774 1.344378 -6.239899 -4.306651 0.000000 0.000000 0.000000 1.524675 1.422987 48.335123 0.390097 0.218861 0.190754 7.145295 5.815363 -4.822845 0.000000 0.000000 0.000000
-57.842155 79.384370 365.327775 -2.259956 -2.256604 -45.247554 0.169938 -1.366913 45.102270 -0.475352 -0.268908 -0.143938 10.673046 5.018435 -3.027033 0.000000 0.000000 0.000000 -3.026067 2.356223 2.424248 -0.441243 2.675643 2.045221 3.885392 -3.764771 6.473380 -3.657115 5.186917 -8.995573 0.000000 0.000000 0.000000 0.000000 0.000000 0.000000 36.537799 -17.827487 -5.668985 28.288911 -51.689012 49.238935 -29.735970 17.774596 -38.073582 88.092295 -18.369653 -85.732142 0.000000 0.000000 0.000000 0.000000 0.000000 0.000000 0.892889 2.782951 45.352743 1.114561 0.301708 0.215290 1.116041 -5.470204 -3.914341 0.000000 0.000000 0.000000 1.251322 1.753703 45.339898 0.998779 0.179169 0.305998 9.253834 5.814493 -6.488888 0.000000 0.000000 0.000000
-58.071039 79.517449 365.402557 -2.614633 -2.960112 -41.814363 0.295011 -1.505891 41.635043 -0.426951 -0.343698 -0.147816 12.158908 4.278147 -3.070216 0.000000 0.000000 0.000000 -3.856840 2.073209 3.031749 0.155592 4.135282 4.101274 0.099423 -1.729352 4.553556 -2.865167 -0.061697 0.510807 0.000000 0.000000 0.000000 0.000000 0.000000 0.000000 36.571773 -10.968911 -7.895341 41.437917 -52.826201 67.376367 -28.380119 22.865625 -35.094076 77.574877 -18.642807 -80.180980 0.000000 0.000000 0.000000 0.000000 0.000000 0.000000 1.415628 3.345316 41.947636 1.471508 1.613203 0.035127 0.631278 -3.539936 -3.214422 0.000000 0.000000 0.000000 0.946285 2.095138 41.831533 1.619153 0.269039 0.401482 10.947035 5.044988 -7.965716 0.000000 0.000000 0.000000
-58.349688 79.652397 365.490558 -2.889485 -3.684185 -37.553734 0.452607 -1.628370 37.340349 -0.380546 -0.382205 -0.144044 13.350614 3.141273 -2.929437 0.000000 0.000000 0.000000 -3.992115 1.435564 3.421605 0.209098 5.937861 6.728126 -6.472522 1.145084 5.174023 0.083461 -5.517149 5.470338 0.000000 0.000000 0.000000 0.000000 0.000000 0.000000 34.698119 0.029311 -10.376565 56.104397 -48.272709 94.152561 -24.918021 24.730161 -35.834986 71.387665 -18.485994 -78.559376 0.000000 0.000000 0.000000 0.000000 0.000000 0.000000 2.115170 3.903948 37.681102 1.696590 2.980149 -0.163071 -0.073285 -2.528684 -2.634421 0.000000 0.000000 0.000000 0.778817 2.375608 37.519627 2.145267 0.520759 0.454033 12.446699 2.780297 -9.489020 0.000000 0.000000 0.000000
-58.656956 79.789433 365.648424 -3.091026 -4.512648 -32.776747 0.570925 -1.618740 32.529258 -0.318508 -0.399422 -0.133056 14.191612 2.117695 -2.773281 0.000000 0.000000 0.000000 -3.559773 0.470293 3.606886 -0.492383 8.051276 9.818722 -12.777712 3.417665 7.105235 2.560048 -9.666835 7.004788 0.000000 0.000000 0.000000 0.000000 0.000000 0.000000 38.976607 8.300023 -14.398690 57.087015 -39.086158 118.351147 -22.162044 20.221598 -35.176024 69.057020 -21.956519 -84.558167 0.000000 0.000000 0.000000 0.000000 0.000000 0.000000 2.892097 4.505690 32.854530 1.789499 4.446288 -0.400930 -0.985497 -2.109642 -1.991549 0.000000 0.000000 0.000000 0.707064 2.721435 32.714996 2.482959 0.924275 0.445743 13.235815 -0.250469 -10.544994 0.000000 0.000000 0.000000
-58.973566 79.932985 365.936229 -3.206091 -5.347405 -27.722835 0.610318 -1.294050 27.447485 -0.295887 -0.766465 -0.126175 14.174175 1.379216 -2.431032 0.000000 0.000000 0.000000 -3.027681 -0.943632 3.789313 -2.411657 10.715461 13.513408 -14.552723 3.405183 7.917931 3.948908 -10.074411 4.112735 0.000000 0.000000 0.000000 0.000000 0.000000 0.000000 46.147816 15.449025 -20.205040 41.650830 -33.076207 137.723682 -15.913938 7.092016 -25.128115 48.182565 -39.647286 -101.394555 0.000000 0.000000 0.000000 0.000000 0.000000 0.000000 3.578585 5.196588 27.680027 1.794653 5.568100 -0.575827 -1.819004 -2.292974 -1.514331 0.000000 0.000000 0.000000 0.687024 3.105032 27.644817 2.711446 1.335261 0.414286 13.138997 -3.919078 -11.094632 0.000000 0.000000 0.000000
-59.275728 80.076285 366.298299 -3.308357 -6.561587 -22.736420 0.744572 -1.286565 22.414403 -0.253648 -0.748208 -0.107711 14.390479 0.953334 -2.239129 0.000000 0.000000 0.000000 -2.263491 -2.005741 3.933391 -5.411582 13.268317 18.177357 -13.855608 3.191757 6.290259 4.416631 -8.943630 0.409252 0.000000 0.000000 0.000000 0.000000 0.000000 0.000000 50.977369 21.512211 -25.320637 21.353569 -35.977305 147.286372 -9.425377 -1.289009 -12.780934 31.640400 -53.026080 -111.356542 0.000000 0.000000 0.000000 0.000000 0.000000 0.000000 4.194421 6.362018 22.472456 1.605438 6.386293 -0.693947 -2.519231 -2.996950 -1.175467 0.000000 0.000000 0.000000 0.703913 3.866646 22.650743 2.714193 1.797049 0.337507 12.043113 -7.974255 -11.055582 0.000000 0.000000 0.000000
-59.516085 80.189495 366.677068 -3.374328 -8.025718 -18.188529 0.832775 -1.542099 17.809164 -0.202965 -0.484261 -0.086386 14.990060 0.255006 -2.035026 0.000000 0.000000 0.000000 -2.956992 -2.408091 4.519548 -7.020603 15.148593 21.866748 -13.220003 1.354262 7.326958 4.044439 -4.847025 -6.985131 0.000000 0.000000 0.000000 0.000000 0.000000 0.000000 54.063818 26.843842 -29.611016 -5.564572 -43.075567 145.446266 -7.205611 -4.218875 -7.800552 35.451527 -63.842123 -96.211831 0.000000 0.000000 0.000000 0.000000 0.000000 0.000000 4.702362 7.865563 17.629451 1.452475 6.818299 -0.727699 -3.168768 -4.155070 -1.019187 0.000000 0.000000 0.000000 0.579969 4.808949 18.081371 2.939674 2.305552 0.285306 9.180442 -11.211402 -9.982634 0.000000 0.000000 0.000000
-59.709405 80.270302 367.083487 -3.457537 -9.559054 -14.098643 0.853585 -1.921736 13.653341 -0.137073 -0.021251 -0.066072 15.724997 -0.241953 -1.956434 0.000000 0.000000 0.000000 -4.060991 -2.582188 5.242231 -8.774437 16.581387 25.401794 -11.670721 2.335354 4.023625 2.174249 -2.821425 -8.264707 0.000000 0.000000 0.000000 0.000000 0.000000 0.000000 56.417347 31.268482 -33.254660 -42.120043 -46.854791 129.511158 -14.893667 -11.142104 -10.394075 51.156171 -55.466431 -71.925699 0.000000 0.000000 0.000000 0.000000 0.000000 0.000000 5.384790 9.647539 13.135956 1.052887 6.963802 -0.708895 -3.794171 -4.763933 -0.594478 0.000000 0.000000 0.000000 0.561845 5.930449 13.960325 3.069446 2.710627 0.236311 11.740216 -6.649509 -10.531189 0.000000 0.000000 0.000000
-59.805886 80.289600 367.444804 -3.483544 -11.133091 -10.951760 0.731622 -2.266667 10.449998 -0.035660 0.420907 -0.052873 16.464723 -0.666587 -1.910539 0.000000 0.000000 0.000000 -6.028984 -2.352641 6.250875 -9.527780 17.471548 27.411113 -9.361904 4.638364 -0.794291 -2.841860 -4.424444 -1.350758 0.000000 0.000000 0.000000 0.000000 0.000000 0.000000 56.717248 35.050178 -35.298533 -71.033560 -42.041972 112.985544 -18.457257 -14.452234 -9.551892 45.774600 -43.613935 -66.931654 0.000000 0.000000 0.000000 0.000000 0.000000 0.000000 5.916224 11.585997 9.556161 0.611711 6.846949 -0.657537 -4.217078 -5.357244 -0.182173 0.000000 0.000000 0.000000 0.598411 7.235283 10.785501 2.932006 2.868145 0.196820 12.577995 -7.380127 -11.026158 0.000000 0.000000 0.000000
-59.842094 80.277101 367.749642 -3.443080 -12.713251 -8.496285 0.504049 -2.597065 7.954998 0.070429 0.794948 -0.046070 17.262486 -0.879338 -1.978254 0.000000 0.000000 0.000000 -6.585858 -2.123202 6.826717 -11.116506 18.416998 29.682080 -7.917323 6.222336 -3.730696 -6.502367 -4.806283 1.496973 0.000000 0.000000 0.000000 0.000000 0.000000 0.000000 56.987431 37.697601 -36.918002 -92.424294 -31.232538 102.238496 -17.632199 -14.431766 -6.337926 30.772536 -44.162103 -66.975428 0.000000 0.000000 0.000000 0.000000 0.000000 0.000000 6.457185 13.357627 6.698757 0.133811 7.017602 -0.701996 -4.431346 -5.885687 0.219388 0.000000 0.000000 0.000000 0.743653 8.666873 8.305576 2.512368 2.868811 0.146497 12.798565 -7.928989 -11.060260 0.000000 0.000000 0.000000
-59.854913 80.180916 367.941618 -3.444257 -14.127331 -6.455035 0.228476 -2.625614 5.882891 0.171909 1.056129 -0.048047 17.833246 -1.383237 -1.847385 0.000000 0.000000 0.000000 -6.871379 -2.199736 7.285214 -11.355729 19.415268 31.458812 -10.982443 17.119678 -9.337647 -6.518424 -13.527204 6.554725 0.000000 0.000000 0.000000 0.000000 0.000000 0.000000 54.657123 40.029649 -36.256878 -103.333410 -20.594537 98.726796 -10.425500 -9.871587 -2.693233 10.992095 -46.972849 -69.982804 0.000000 0.000000 0.000000 0.000000 0.000000 0.000000 6.928756 14.766494 4.343464 -0.031258 7.133661 -0.730774 -4.570847 -5.681881 0.550161 0.000000 0.000000 0.000000 1.111012 9.881738 6.225504 1.951391 2.861368 0.083828 12.747180 -8.200405 -10.905398 0.000000 0.000000 0.000000
